<svg width="121" height="16" viewBox="0 0 121 16" fill="none" xmlns="http://www.w3.org/2000/svg">
<g clip-path="url(#clip0_30183_292)">
<path d="M21.9986 0.25H2.55633C1.45503 0.25 0.562256 1.14543 0.562256 2.25V13.75C0.562256 14.8546 1.45503 15.75 2.55633 15.75H21.9986C23.0999 15.75 23.9926 14.8546 23.9926 13.75V2.25C23.9926 1.14543 23.0999 0.25 21.9986 0.25Z" fill="white" stroke="black" stroke-opacity="0.2" stroke-width="0.5"/>
<path d="M3.0925 5.91444C2.5709 5.62751 1.97562 5.39674 1.31006 5.23659L1.33798 5.11188H4.06685C4.43673 5.12489 4.73687 5.23651 4.83453 5.63071L5.42759 8.46659L5.60927 9.32073L7.27032 5.11188H9.06381L6.39782 11.2775H4.60424L3.0925 5.91444ZM10.3831 11.2841H8.68697L9.74784 5.11188H11.4439L10.3831 11.2841ZM16.5316 5.26277L16.301 6.59559L16.1475 6.53004C15.8406 6.40525 15.4355 6.28054 14.8841 6.29371C14.2145 6.29371 13.9141 6.56277 13.9072 6.82546C13.9072 7.11441 14.2705 7.30484 14.8637 7.58725C15.8409 8.02719 16.2942 8.56557 16.2874 9.26819C16.2737 10.5486 15.1151 11.3761 13.3354 11.3761C12.5745 11.3694 11.8416 11.2181 11.4438 11.0476L11.6811 9.66205L11.9044 9.76066C12.4558 9.99071 12.8187 10.089 13.4958 10.089C13.9842 10.089 14.5077 9.89838 14.5144 9.48488C14.5144 9.21565 14.2914 9.01851 13.6352 8.71646C12.9931 8.42087 12.1347 7.92848 12.1487 7.04198C12.1559 5.84042 13.3354 5 15.0103 5C15.6665 5 16.1971 5.13789 16.5316 5.26277ZM18.7859 9.09749H20.1957C20.1259 8.78889 19.8047 7.31147 19.8047 7.31147L19.6862 6.77964C19.6025 7.00943 19.456 7.38373 19.4631 7.37056C19.4631 7.37056 18.9256 8.7429 18.7859 9.09749ZM20.8795 5.11188L22.2479 11.284H20.6774C20.6774 11.284 20.5237 10.5748 20.475 10.3581H18.2974C18.2344 10.5222 17.9414 11.284 17.9414 11.284H16.1617L18.6811 5.62399C18.8556 5.22342 19.163 5.11188 19.5676 5.11188H20.8795Z" fill="#171E6C"/>
</g>
<g clip-path="url(#clip1_30183_292)">
<path d="M54.1768 0H34.236C33.1347 0 32.2419 0.89543 32.2419 2V14C32.2419 15.1046 33.1347 16 34.236 16H54.1768C55.2781 16 56.1709 15.1046 56.1709 14V2C56.1709 0.89543 55.2781 0 54.1768 0Z" fill="#252525"/>
<path d="M41.2153 13C43.9685 13 46.2005 10.7614 46.2005 8C46.2005 5.23858 43.9685 3 41.2153 3C38.462 3 36.2301 5.23858 36.2301 8C36.2301 10.7614 38.462 13 41.2153 13Z" fill="#EB001B"/>
<path d="M47.1975 13C49.9507 13 52.1827 10.7614 52.1827 8C52.1827 5.23858 49.9507 3 47.1975 3C44.4442 3 42.2123 5.23858 42.2123 8C42.2123 10.7614 44.4442 13 47.1975 13Z" fill="#F79E1B"/>
<path fill-rule="evenodd" clip-rule="evenodd" d="M44.2064 3.99963C45.4172 4.91184 46.2004 6.36418 46.2004 8C46.2004 9.63582 45.4172 11.0882 44.2064 12.0004C42.9955 11.0882 42.2123 9.63582 42.2123 8C42.2123 6.36418 42.9955 4.91184 44.2064 3.99963Z" fill="#FF5F00"/>
</g>
<g clip-path="url(#clip2_30183_292)">
<path d="M86.1056 0H66.1649C65.0636 0 64.1708 0.89543 64.1708 2V14C64.1708 15.1046 65.0636 16 66.1649 16H86.1056C87.2069 16 88.0997 15.1046 88.0997 14V2C88.0997 0.89543 87.2069 0 86.1056 0Z" fill="#016FD0"/>
<path fill-rule="evenodd" clip-rule="evenodd" d="M77.894 13.3938V7.69244L88.0115 7.70155V9.27644L86.8421 10.5298L88.0115 11.7947V13.403H86.1444L85.1522 12.3049L84.167 13.4072L77.894 13.3938Z" fill="#FFFFFE"/>
<path fill-rule="evenodd" clip-rule="evenodd" d="M78.5698 12.7688V8.31989H82.3309V9.34477H79.7876V10.0405H82.2703V11.0483H79.7876V11.7316H82.3309V12.7688H78.5698Z" fill="#016FD0"/>
<path fill-rule="evenodd" clip-rule="evenodd" d="M82.3121 12.7688L84.3933 10.5418L82.312 8.32001H83.9229L85.1946 9.73004L86.4699 8.32001H88.0115V8.35501L85.9747 10.5418L88.0115 12.7057V12.7688H86.4544L85.1601 11.3446L83.8792 12.7688H82.3121Z" fill="#016FD0"/>
<path fill-rule="evenodd" clip-rule="evenodd" d="M78.3659 2.63196H80.8047L81.6613 4.58281V2.63196H84.6722L85.1914 4.09353L85.7124 2.63196H88.0115V8.33335H75.8611L78.3659 2.63196Z" fill="#FFFFFE"/>
<path fill-rule="evenodd" clip-rule="evenodd" d="M78.8277 3.2514L76.8595 7.69658H78.2094L78.5807 6.80641H80.5927L80.9637 7.69658H82.3472L80.3872 3.2514H78.8277ZM78.9968 5.80884L79.587 4.39377L80.1768 5.80884H78.9968Z" fill="#016FD0"/>
<path fill-rule="evenodd" clip-rule="evenodd" d="M82.3287 7.69575V3.25067L84.2262 3.25721L85.2026 5.98994L86.1853 3.25067H88.0115V7.69575L86.8364 7.70619V4.65284L85.7271 7.69575H84.6545L83.5222 4.64241V7.69575H82.3287Z" fill="#016FD0"/>
</g>
<g clip-path="url(#clip3_30183_292)">
<path d="M118.032 15.7499L118.034 15.7499C118.986 15.7581 119.767 14.9773 119.779 14.0042L119.779 2.0063C119.776 1.53569 119.589 1.08617 119.261 0.756802C118.933 0.428269 118.492 0.246149 118.032 0.250071L98.0945 0.250062C97.6363 0.246149 97.1951 0.428269 96.8677 0.756802C96.5396 1.08617 96.3528 1.53569 96.349 2.00426L96.349 13.9937C96.3528 14.4643 96.5396 14.9138 96.8677 15.2432C97.1951 15.5717 97.6363 15.7538 98.0966 15.7499H118.032ZM118.031 16.2499C118.03 16.2499 118.03 16.2499 118.03 16.2499L118.032 16.2499H118.031Z" fill="white" stroke="black" stroke-opacity="0.2" stroke-width="0.5"/>
<path d="M108.675 15.9999H118.032C118.557 16.0043 119.063 15.7993 119.437 15.4299C119.811 15.0605 120.024 14.557 120.029 14.0303V11.6716C116.495 13.7059 112.663 15.1668 108.675 15.9999Z" fill="#F27712"/>
<path d="M119.204 9.29649H118.354L117.397 8.03029H117.306V9.29649H116.613V6.15167H117.636C118.436 6.15167 118.898 6.4827 118.898 7.07856C118.898 7.56684 118.609 7.88132 118.09 7.98063L119.204 9.29649ZM118.18 7.10339C118.18 6.79718 117.949 6.63994 117.52 6.63994H117.306V7.59167H117.504C117.949 7.59167 118.18 7.42615 118.18 7.10339ZM114.187 6.15167H116.151V6.68132H114.88V7.38477H116.101V7.9227H114.88V8.77512H116.151V9.30477H114.187V6.15167ZM111.959 9.37925L110.457 6.14339H111.216L112.165 8.26201L113.122 6.14339H113.865L112.347 9.37925H111.975H111.959ZM105.68 9.37098C104.623 9.37098 103.798 8.65098 103.798 7.71581C103.798 6.80546 104.64 6.06891 105.696 6.06891C105.993 6.06891 106.241 6.12684 106.546 6.25925V6.98753C106.315 6.75971 106.004 6.63194 105.68 6.63167C105.019 6.63167 104.516 7.11167 104.516 7.71581C104.516 8.35305 105.011 8.80822 105.713 8.80822C106.026 8.80822 106.265 8.70891 106.546 8.46063V9.18891C106.232 9.32132 105.968 9.37098 105.68 9.37098ZM103.584 8.33649C103.584 8.94891 103.08 9.37098 102.354 9.37098C101.826 9.37098 101.447 9.18891 101.125 8.77512L101.579 8.38615C101.735 8.66753 102 8.80822 102.33 8.80822C102.643 8.80822 102.866 8.61787 102.866 8.3696C102.866 8.22891 102.8 8.12132 102.66 8.03856C102.506 7.96371 102.346 7.90277 102.181 7.85649C101.529 7.6496 101.306 7.42615 101.306 6.98753C101.306 6.47443 101.785 6.08546 102.412 6.08546C102.808 6.08546 103.163 6.2096 103.46 6.44132L103.097 6.85512C102.953 6.6969 102.749 6.60677 102.536 6.60684C102.239 6.60684 102.024 6.75581 102.024 6.95443C102.024 7.11994 102.148 7.21098 102.561 7.35167C103.353 7.59994 103.584 7.83167 103.584 8.34477V8.33649ZM100.176 6.15167H100.869V9.30477H100.176V6.15167ZM97.9481 9.30477H96.9249V6.15167H97.9481C99.0703 6.15167 99.8459 6.79718 99.8459 7.72408C99.8459 8.19581 99.6149 8.6427 99.2106 8.94063C98.864 9.18891 98.4762 9.30477 97.9398 9.30477H97.9481ZM98.7567 6.93787C98.5257 6.75581 98.2616 6.6896 97.8078 6.6896H97.618V8.77512H97.8078C98.2534 8.77512 98.5339 8.69236 98.7567 8.52684C98.996 8.32822 99.1363 8.03029 99.1363 7.72408C99.1363 7.41787 98.996 7.12822 98.7567 6.93787Z" fill="black"/>
<path d="M108.477 6.06891C107.569 6.06891 106.827 6.79718 106.827 7.69925C106.827 8.65925 107.536 9.37925 108.477 9.37925C109.401 9.37925 110.127 8.65098 110.127 7.72408C110.127 6.79718 109.409 6.06891 108.477 6.06891Z" fill="#F27712"/>
</g>
<defs>
<clipPath id="clip0_30183_292">
<rect width="23.9289" height="16" fill="white" transform="translate(0.312988)"/>
</clipPath>
<clipPath id="clip1_30183_292">
<rect width="23.9289" height="16" fill="white" transform="translate(32.2419)"/>
</clipPath>
<clipPath id="clip2_30183_292">
<rect width="23.9289" height="16" fill="white" transform="translate(64.1708)"/>
</clipPath>
<clipPath id="clip3_30183_292">
<rect width="23.9289" height="16" fill="white" transform="translate(96.0997)"/>
</clipPath>
</defs>
</svg>
